<svg height="512pt" viewBox="0 -28 512.00966 512" width="512pt" xmlns="http://www.w3.org/2000/svg"><path d="m96 104.003906c-3.449219 0-6.503906-2.199218-7.585938-5.472656-.671874-2.007812-16.414062-49.519531-16.414062-74.527344 0-13.230468 10.769531-23.99999975 24-23.99999975s24 10.76953175 24 23.99999975c0 25.007813-15.742188 72.519532-16.414062 74.527344-1.082032 3.273438-4.136719 5.472656-7.585938 5.472656zm0-88c-4.414062 0-8 3.59375-8 8 0 11.472656 4.03125 29.257813 8 43.953125 3.960938-14.703125 8-32.488281 8-43.953125 0-4.40625-3.585938-8-8-8zm0 0"/><path d="m96 456.003906c-4.425781 0-8-3.574218-8-8v-352c0-4.414062 3.574219-8 8-8s8 3.585938 8 8v352c0 4.425782-3.574219 8-8 8zm0 0"/><path d="m480 72.003906c-1.054688 0-2.128906-.207031-3.152344-.65625-4.0625-1.734375-5.945312-6.4375-4.199218-10.503906l19.214843-44.839844h-247.726562l19.214843 44.847656c1.746094 4.066407-.144531 8.769532-4.199218 10.503907-4.03125 1.730469-8.769532-.132813-10.503906-4.199219l-24-56c-1.0625-2.472656-.808594-5.3125.671874-7.550781 1.488282-2.25 3.992188-3.60156275 6.679688-3.60156275h272c2.6875 0 5.191406 1.35156275 6.679688 3.60156275 1.480468 2.238281 1.734374 5.078125.671874 7.550781l-24 56c-1.296874 3.03125-4.246093 4.847656-7.351562 4.847656zm0 0"/><path d="m504 456.003906h-272c-2.6875 0-5.191406-1.351562-6.679688-3.589844-1.480468-2.25-1.734374-5.089843-.671874-7.554687l24-56c1.734374-4.078125 6.480468-5.949219 10.503906-4.199219 4.0625 1.746094 5.945312 6.449219 4.199218 10.503906l-19.214843 44.839844h247.734375l-19.214844-44.847656c-1.746094-4.054688.144531-8.757812 4.199219-10.503906 4.023437-1.757813 8.769531.128906 10.503906 4.199218l24 56c1.066406 2.472657.808594 5.304688-.671875 7.554688-1.496094 2.246094-4 3.597656-6.6875 3.597656zm0 0"/><path d="m256 400.003906c-4.425781 0-8-3.574218-8-8v-328c0-4.414062 3.574219-8 8-8s8 3.585938 8 8v328c0 4.425782-3.574219 8-8 8zm0 0"/><path d="m480 400.003906c-4.425781 0-8-3.574218-8-8v-328c0-4.414062 3.574219-8 8-8s8 3.585938 8 8v328c0 4.425782-3.574219 8-8 8zm0 0"/><path d="m480 72.003906h-224c-4.425781 0-8-3.582031-8-8 0-4.414062 3.574219-8 8-8h224c4.425781 0 8 3.585938 8 8 0 4.417969-3.574219 8-8 8zm0 0"/><path d="m480 400.003906h-224c-4.425781 0-8-3.574218-8-8 0-4.421875 3.574219-8 8-8h224c4.425781 0 8 3.578125 8 8 0 4.425782-3.574219 8-8 8zm0 0"/><path d="m488 104.003906h-312c-4.425781 0-8-3.582031-8-8 0-4.414062 3.574219-8 8-8h312c4.425781 0 8 3.585938 8 8 0 4.417969-3.574219 8-8 8zm0 0"/><path d="m488 128.003906h-240c-4.425781 0-8-3.582031-8-8 0-4.414062 3.574219-8 8-8h240c4.425781 0 8 3.585938 8 8 0 4.417969-3.574219 8-8 8zm0 0"/><path d="m488 152.003906h-240c-4.425781 0-8-3.582031-8-8 0-4.414062 3.574219-8 8-8h240c4.425781 0 8 3.585938 8 8 0 4.417969-3.574219 8-8 8zm0 0"/><path d="m488 176.003906h-240c-4.425781 0-8-3.582031-8-8 0-4.414062 3.574219-8 8-8h240c4.425781 0 8 3.585938 8 8 0 4.417969-3.574219 8-8 8zm0 0"/><path d="m488 200.003906h-240c-4.425781 0-8-3.582031-8-8 0-4.414062 3.574219-8 8-8h240c4.425781 0 8 3.585938 8 8 0 4.417969-3.574219 8-8 8zm0 0"/><path d="m488 224.003906h-240c-4.425781 0-8-3.582031-8-8 0-4.414062 3.574219-8 8-8h240c4.425781 0 8 3.585938 8 8 0 4.417969-3.574219 8-8 8zm0 0"/><path d="m488 248.003906h-240c-4.425781 0-8-3.574218-8-8 0-4.414062 3.574219-8 8-8h240c4.425781 0 8 3.585938 8 8 0 4.425782-3.574219 8-8 8zm0 0"/><path d="m488 272.003906h-240c-4.425781 0-8-3.574218-8-8 0-4.421875 3.574219-8 8-8h240c4.425781 0 8 3.578125 8 8 0 4.425782-3.574219 8-8 8zm0 0"/><path d="m488 296.003906h-240c-4.425781 0-8-3.574218-8-8 0-4.421875 3.574219-8 8-8h240c4.425781 0 8 3.578125 8 8 0 4.425782-3.574219 8-8 8zm0 0"/><path d="m488 320.003906h-240c-4.425781 0-8-3.574218-8-8 0-4.421875 3.574219-8 8-8h240c4.425781 0 8 3.578125 8 8 0 4.425782-3.574219 8-8 8zm0 0"/><path d="m488 344.003906h-240c-4.425781 0-8-3.574218-8-8 0-4.421875 3.574219-8 8-8h240c4.425781 0 8 3.578125 8 8 0 4.425782-3.574219 8-8 8zm0 0"/><path d="m488 368.003906h-240c-4.425781 0-8-3.574218-8-8 0-4.421875 3.574219-8 8-8h240c4.425781 0 8 3.578125 8 8 0 4.425782-3.574219 8-8 8zm0 0"/><path d="m176 40.003906h-168c-4.425781 0-8-3.582031-8-8 0-4.414062 3.574219-8 8-8h168c4.425781 0 8 3.585938 8 8 0 4.417969-3.574219 8-8 8zm0 0"/><path d="m176 104.003906c-13.230469 0-24-10.765625-24-24 0-13.230468 10.769531-24 24-24 4.425781 0 8 3.585938 8 8 0 4.417969-3.574219 8-8 8-4.414062 0-8 3.59375-8 8 0 4.410156 3.585938 8 8 8 4.425781 0 8 3.585938 8 8 0 4.417969-3.574219 8-8 8zm0 0"/><path d="m176 72.003906c-4.425781 0-8-3.582031-8-8 0-4.414062 3.574219-8 8-8 4.414062 0 8-3.589844 8-8 0-4.40625-3.585938-8-8-8-4.425781 0-8-3.582031-8-8 0-4.414062 3.574219-8 8-8 13.230469 0 24 10.769532 24 24 0 13.234375-10.769531 24-24 24zm0 0"/></svg>